<?xml version="1.0" encoding="UTF-8" standalone="no"?>
<!-- Generator: Adobe Illustrator 28.0.0, SVG Export Plug-In . SVG Version: 6.00 Build 0)  -->

<svg
   version="1.1"
   id="Capa_1"
   x="0px"
   y="0px"
   viewBox="0 0 792 340.74"
   style="enable-background:new 0 0 792 340.74;"
   xml:space="preserve"
   xmlns="http://www.w3.org/2000/svg"
   xmlns:svg="http://www.w3.org/2000/svg"><defs
   id="defs23" />
<g
   id="g23"
   style="fill:#ffffff;fill-opacity:1">
	<g
   id="g21"
   style="fill:#ffffff;fill-opacity:1">
		<path
   d="M288.35,287.5h-8.53v0.78c2.13,0,2.64,0.54,2.64,1.87v10.34c0,1.33-0.51,1.87-2.64,1.87v0.73h8.53    c4.96,0,8.98-2.67,8.98-7.75C297.33,289.91,293.42,287.57,288.35,287.5 M288.44,302.32c-1.43,0-3.02-0.16-3.02-1.82v-10.34    c0-1.33,0.82-1.87,2.08-1.87c3.53,0,6.25,2.21,6.25,7.02C293.76,300.21,291.87,302.3,288.44,302.32"
   id="path1"
   style="fill:#ffffff;fill-opacity:1" />
		<path
   d="M357.11,287.5h-8.53v0.78c2.13,0,2.64,0.54,2.64,1.87v10.34c0,1.33-0.51,1.87-2.64,1.87v0.73h8.53    c4.96,0,8.98-2.67,8.98-7.75C366.09,289.91,362.19,287.57,357.11,287.5 M357.21,302.32c-1.43,0-3.02-0.16-3.02-1.82v-10.34    c0-1.33,0.82-1.87,2.08-1.87c3.53,0,6.26,2.21,6.26,7.02C362.52,300.21,360.63,302.3,357.21,302.32"
   id="path2"
   style="fill:#ffffff;fill-opacity:1" />
		<path
   d="M318.57,299.06c-1.19,2.56-2.76,3.29-5.89,3.29c-1.51,0-1.75-0.48-1.75-1.7v-4.89h2.44c0.7,0,1.94,1.98,1.94,1.98    l0.41-0.14c0,0-0.31-1.22-0.31-2.29c0-1.07,0.31-2.52,0.31-2.52l-0.41-0.12c0,0-1.17,2.17-1.94,2.17h-2.44v-4.93    c0-1.18,0.33-1.6,1.63-1.6c3.26,0,4.69,0.81,5.43,2.95l0.62-0.27c-0.35-2.37-0.13-4.01-0.13-4.01l-0.48-0.05    c-0.3,0.44-2.93,0.58-5.16,0.58h-7.52v0.78c2.1,0,2.63,0.54,2.63,1.87v10.34c0,1.33-0.53,1.87-2.63,1.87v0.73h10.82    c1.39,0,1.94,0.37,1.94,0.37l0.48-0.07c0,0,0.05-1.33,0.69-4.34H318.57z"
   id="path3"
   style="fill:#ffffff;fill-opacity:1" />
		<path
   d="M386.6,299.06c-1.19,2.56-2.76,3.29-5.89,3.29c-1.51,0-1.75-0.48-1.75-1.7v-4.89h2.44c0.7,0,1.94,1.98,1.94,1.98    l0.41-0.14c0,0-0.31-1.22-0.31-2.29c0-1.07,0.31-2.52,0.31-2.52l-0.41-0.12c0,0-1.17,2.17-1.94,2.17h-2.44v-4.93    c0-1.18,0.34-1.6,1.63-1.6c3.26,0,4.69,0.81,5.43,2.95l0.63-0.27c-0.35-2.37-0.13-4.01-0.13-4.01l-0.48-0.05    c-0.31,0.44-2.93,0.58-5.16,0.58h-7.52v0.78c2.1,0,2.63,0.54,2.63,1.87v10.34c0,1.33-0.53,1.87-2.63,1.87v0.73h10.82    c1.39,0,1.94,0.37,1.94,0.37l0.48-0.07c0,0,0.05-1.33,0.69-4.34H386.6z"
   id="path4"
   style="fill:#ffffff;fill-opacity:1" />
		<path
   d="M331.61,290.33c0-1.78,1.02-2.63,3.04-2.63c2.43,0,3.8,1.72,3.8,3.93l1.01,0.18c0.5-2.52,0.27-4.12,0.27-4.12    s-1.86-0.92-5.02-0.92c-3.5,0-5.84,1.83-5.84,4.79c0,6.06,8.79,3.65,8.79,8.31c0,1.38-0.76,2.81-3.08,2.81    c-3.59,0-3.7-2.9-4.86-4.78l-0.7,0.07c0.25,2.38-0.37,4.07-0.37,4.07s2.16,1.6,5.85,1.6c4.07,0,6.01-2.4,6.01-5.08    C340.52,292.75,331.61,295.1,331.61,290.33"
   id="path5"
   style="fill:#ffffff;fill-opacity:1" />
		<path
   d="M417.4,289.74c0-1.33,0.12-2.65,0.12-2.65l-6.83,1.39v0.78c2.59,0,3.75,0.28,3.75,1.19v10.05c0,1.33-1.21,1.87-3.34,1.87    v0.73h9.71v-0.73c-2.05,0-3.4-0.54-3.4-1.87V289.74z"
   id="path6"
   style="fill:#ffffff;fill-opacity:1" />
		<path
   d="M476.05,302.47c-2.87,0-2.9-2.53-3.89-3.89l-0.81,0.1c0,0,0.24,1.16,0.24,2.29c0,0.8-0.04,1.33-0.04,1.33    s1.76,1.24,4.76,1.24c3.32,0,6.03-1.97,6.03-4.93c0-2.97-3.57-4.08-3.57-4.08s3.1-1.15,3.1-3.65c0-2.55-2.24-3.89-5.35-3.89    c-2.49,0-4.84,1.08-4.84,1.08s-0.01,1.82,0.44,3.77l0.89-0.17c0-2.61,0.92-3.76,2.84-3.76c1.44,0,2.83,1.07,2.83,3.13    c0,2.29-1.95,3.72-4.08,3.77v0.71c2.06-0.03,4.38,1.13,4.38,3.62C478.99,301.1,478.15,302.47,476.05,302.47"
   id="path7"
   style="fill:#ffffff;fill-opacity:1" />
		<path
   d="M437.57,294.62c0,0,2.15-1.26,2.15-3.49c0-2.55-1.94-4.13-5.05-4.13c-3.12,0-5.27,1.75-5.27,4.26    c0,2.77,2.44,3.78,2.44,3.78s-3.14,1.04-3.14,3.82c0,3.1,2.28,4.69,5.68,4.69c3.35,0,5.99-1.97,5.99-4.93    C440.37,295.64,437.57,294.62,437.57,294.62 M434.55,287.92c1.49,0,2.47,1.12,2.47,3.23c0,2.02-0.96,2.87-0.96,2.87    s-3.88-0.78-3.88-3.43C432.18,288.87,433.14,287.92,434.55,287.92 M434.55,302.43c-1.63,0-2.8-1.27-2.8-3.6    c0-2.34,1.53-3.12,1.53-3.12s4.21,0.61,4.21,3.43C437.49,301.16,436.22,302.43,434.55,302.43"
   id="path8"
   style="fill:#ffffff;fill-opacity:1" />
		<path
   d="M458.78,294.62c0,0,2.15-1.26,2.15-3.49c0-2.55-1.94-4.13-5.05-4.13c-3.11,0-5.26,1.75-5.26,4.26    c0,2.77,2.44,3.78,2.44,3.78s-3.13,1.04-3.13,3.82c0,3.1,2.27,4.69,5.68,4.69c3.35,0,5.98-1.97,5.98-4.93    C461.58,295.64,458.78,294.62,458.78,294.62 M455.76,287.92c1.49,0,2.47,1.12,2.47,3.23c0,2.02-0.96,2.87-0.96,2.87    s-3.88-0.78-3.88-3.43C453.39,288.87,454.35,287.92,455.76,287.92 M455.76,302.43c-1.63,0-2.8-1.27-2.8-3.6    c0-2.34,1.53-3.12,1.53-3.12s4.21,0.61,4.21,3.43C458.71,301.16,457.44,302.43,455.76,302.43"
   id="path9"
   style="fill:#ffffff;fill-opacity:1" />
		<path
   d="M100.42,242.02l2.31,0.66c-1.81,5.35-2.39,10.49-2.39,10.49s-5.93,4.33-16.05,4.33c-13.38,0-24.37-7.63-24.37-22.67    c0-15.41,11.35-23.18,25.89-23.18c8.68,0,15.77,3.15,15.77,3.15s0.22,6.68-1.16,13.57l-2.46-0.44c0-8.29-4.34-13.43-12.37-13.43    c-8.89,0-15.62,7.04-15.62,19.95c0,12.91,6.58,19.73,15.04,19.73C95.72,254.19,96.88,246.86,100.42,242.02"
   id="path10"
   style="fill:#ffffff;fill-opacity:1" />
		<path
   d="M154.59,234.68c0-13.35-5.06-20.03-14.82-20.03c-9.4,0-14.25,8-14.25,20.03c0,12.91,4.84,19.81,14.25,19.81    C149.31,254.49,154.59,248.32,154.59,234.68 M164.5,234.83c0,14.3-11.57,22.67-25.6,22.67c-14.1,0-24.01-7.85-24.01-22.96    c0-14.09,11.06-22.52,25.6-22.52C154.81,212.01,164.5,219.49,164.5,234.83"
   id="path11"
   style="fill:#ffffff;fill-opacity:1" />
		<path
   d="M185.63,249.06c0,4.47,1.01,5.21,7.81,5.21v2.06h-19.52v-2.06c7.01,0,7.88-0.73,7.88-5.21v-29.93    c-1.66-1.61-4.48-3.89-8.61-3.89v-2.2h15.98c0.36,1.69,2.1,3.96,9.4,12.47l19.09,22.08v-27.14c0-4.47-1.95-5.21-7.16-5.21v-2.2    h17.93v2.2c-5.93,0-7.09,0.81-7.09,5.21v29.78c0,2.86,1.59,4.62,5.06,4.62v2.13h-11.42l-29.36-33.31V249.06z"
   id="path12"
   style="fill:#ffffff;fill-opacity:1" />
		<path
   d="M279.39,242.02l2.31,0.66c-1.81,5.35-2.39,10.49-2.39,10.49s-5.93,4.33-16.05,4.33c-13.38,0-24.37-7.63-24.37-22.67    c0-15.41,11.35-23.18,25.89-23.18c8.68,0,15.76,3.15,15.76,3.15s0.22,6.68-1.16,13.57l-2.46-0.44c0-8.29-4.34-13.43-12.37-13.43    c-8.89,0-15.62,7.04-15.62,19.95c0,12.91,6.58,19.73,15.04,19.73C274.69,254.19,275.85,246.86,279.39,242.02"
   id="path13"
   style="fill:#ffffff;fill-opacity:1" />
		<path
   d="M309.72,236.73v12.4c0,3.67,2.24,5.14,5.79,5.14v2.05h-21.33v-2.05c5.86,0,7.3-1.47,7.3-5.14v-28.76    c0-3.67-1.45-5.14-7.3-5.14v-2.2h21.33v2.2c-3.54,0-5.79,1.47-5.79,5.14v12.98h22.49v-12.98c0-3.67-2.46-5.14-5.86-5.14v-2.2    h21.26v2.2c-5.86,0-7.3,1.47-7.3,5.14v28.76c0,3.67,1.52,5.14,7.52,5.14v2.05h-21.48v-2.05c3.4,0,5.86-1.47,5.86-5.14v-12.4    H309.72z"
   id="path14"
   style="fill:#ffffff;fill-opacity:1" />
		<path
   d="M387.1,239.96l-7.95-20.03l-7.45,20.03H387.1z M400.48,249.65c1.23,2.86,1.66,3.89,7.59,4.62v2.05h-19.82v-2.05    c3.26-0.37,3.91-1.76,3.04-3.82l-2.82-7.04H370.4l-2.6,7.04c-0.72,2.05-0.65,3.45,3.11,3.82v2.05H356v-2.05    c5.78-0.73,6.44-1.76,7.52-4.62l12.65-32.43c-1.88-1.1-4.41-1.91-7.74-1.91v-2.27h17.43c0,1.54,0.72,3.45,1.88,6.23L400.48,249.65    z"
   id="path15"
   style="fill:#ffffff;fill-opacity:1" />
		<path
   d="M448.87,216.12c0,0-2.82,5.65-6,14.67l0.51,1.62c6.15-9.39,10.49-13.43,15.48-13.43v-1.61c-3.47,0-7.59-0.66-9.33-1.54    L448.87,216.12z M440.2,252.14c-1.88,0-4.99,0.22-4.99,0.22s1.16-3.67,1.16-9.24c0-12.91-9.91-22.82-14.54-24.8l1.16-1.62    c4.56,0.73,14.1,5.5,18.01,15.48c2.75,6.97,2.17,13.2,4.12,20.17C445.11,252.36,441.86,252.14,440.2,252.14"
   id="path16"
   style="fill:#ffffff;fill-opacity:1" />
		<path
   d="M576.4,234.68c0-13.35-5.06-20.03-14.82-20.03c-9.4,0-14.25,8-14.25,20.03c0,12.91,4.84,19.81,14.25,19.81    C571.12,254.49,576.4,248.32,576.4,234.68 M586.31,234.83c0,14.3-11.57,22.67-25.6,22.67c-14.1,0-24.01-7.85-24.01-22.96    c0-14.09,11.06-22.52,25.6-22.52C576.61,212.01,586.31,219.49,586.31,234.83"
   id="path17"
   style="fill:#ffffff;fill-opacity:1" />
		<path
   d="M604.32,220.23c0-3.59-2.82-4.99-8.39-4.99v-2.2h8.03c3.76,0,9.91-0.59,14.24-0.59c12.37,0,19.53,4.48,19.53,12.47    c0,10.27-10.56,13.94-15.91,13.94c0,0.88,5.93,0.22,9.11,3.96l12,13.87c1.81,2.13,4.63,4.62,6.51,4.62V263h-12.15    c0,0-17.07-23.91-20.97-23.91v-1.62c8.03,0,11.64-5.43,11.64-12.1c0-5.28-4.12-10.49-11.42-10.49c-1.3,0-2.6,0-3.54,0.22v33.67    c0,3.74,2.24,5.5,5.71,5.5v2.05h-21.84v-2.05c6,0,7.45-1.62,7.45-5.5V220.23z"
   id="path18"
   style="fill:#ffffff;fill-opacity:1" />
		<path
   d="M691.9,234.68c0-13.35-5.06-20.03-14.82-20.03c-9.4,0-14.25,8-14.25,20.03c0,12.91,4.84,19.81,14.25,19.81    C686.62,254.49,691.9,248.32,691.9,234.68 M701.8,234.83c0,14.3-11.57,22.67-25.6,22.67c-14.1,0-24.01-7.85-24.01-22.96    c0-14.09,11.06-22.52,25.6-22.52C692.11,212.01,701.8,219.49,701.8,234.83"
   id="path19"
   style="fill:#ffffff;fill-opacity:1" />
		<g
   id="g20"
   style="fill:#ffffff;fill-opacity:1">
			<path
   d="M490.19,256.34v-2.04c6.07,0,8.17-0.95,8.17-11.3v-26.34c-10.12,0-14.61,3.15-19.96,13.94l-1.66-0.95     c2.6-8.36,7.3-17.83,7.3-17.83h1.3c0.94,1.69,8.1,2.35,17.21,2.35c9.11,0,16.27-0.66,17.21-2.35h1.37c0,0,4.63,9.47,7.3,17.83     l-1.66,0.95c-5.42-10.78-9.83-13.94-19.96-13.94V243c0,10.34,2.02,11.3,8.1,11.3v2.04H490.19z"
   id="path20"
   style="fill:#ffffff;fill-opacity:1" />
		</g>
	</g>
	<path
   d="M462.02,169.46c20.06,0,34.82-0.59,34.82-0.59v-4.92c-18.49,0-25.57-2.16-25.57-32.46c0-53.7,2.95-77.9,2.95-77.9   c24.59,0,40.91,12.2,59.4,43.67l3.74-1.97c-5.7-15.54-16.33-34.82-30.88-55.47h-3.74c-3.34,4.92-13.38,7.48-40.91,7.48   c-27.54,0.2-37.96-2.56-41.11-7.48l-3.93,0.2c-8.46,12.79-20.06,31.87-28.33,52.13c0.98,2.16,1.57,5.31,1.57,5.31   C408.12,66,423.86,53.6,449.23,53.6c0,0,3.34,24.2,3.34,77.9c0.2,30.29-7.28,32.65-25.77,32.65v4.72   C426.81,168.87,441.56,169.46,462.02,169.46 M349.11,52.42c-2.36-2.56-17.9-15.34-45.24-15.34c-37.57,0-69.24,24.39-69.24,69.44   c0,45.83,32.85,68.06,68.45,68.06c20.26,0,35.8-7.28,39.54-9.84c2.36-6.1,5.31-15.34,9.44-33.44l-4.92-0.98   c-5.51,20.46-18.49,35.8-42.1,35.8c-30.29,0-46.81-24.98-46.81-60.58c0-34.62,15.74-60,50.36-60c19.87,0,35.01,8.26,38.36,11.01   L349.11,52.42z M341.83,62.85c19.87,7.28,36,16.33,41.9,35.8c3.54,12.79,0.98,23.6,5.11,34.62c0,0-4.72-0.79-9.83-0.79   c-4.72,0-9.84,0.79-9.84,0.79s2.56-7.08,2.56-17.5c0-22.03-10.43-39.74-31.67-49.18L341.83,62.85z"
   id="path21"
   style="fill:#ffffff;fill-opacity:1" />
	<g
   id="g22"
   style="fill:#ffffff;fill-opacity:1">
		<path
   d="M724.51,226.78c-4.67,0-7.57-2.9-7.57-7.57c0-4.67,2.9-7.57,7.57-7.57c4.67,0,7.57,2.9,7.57,7.57    C732.07,223.88,729.17,226.78,724.51,226.78 M724.51,212.62c-4.14,0-6.23,2.45-6.26,6.59c0,4.14,2.12,6.58,6.26,6.59    c4.14,0,6.25-2.45,6.25-6.59C730.73,215.07,728.64,212.63,724.51,212.62 M721.92,216.62c0-0.61-0.49-0.85-1-0.85v-0.43h0.94    c0.45,0,1.71-0.1,2.52-0.1c1.86,0,3.29,0.67,3.29,1.95c0,1.34-1.29,2.06-2.72,2.16c1.52,0.31,2.31,1.87,2.57,2.32    c0.33,0.54,0.6,0.77,0.89,0.77v0.3h-2.05c-0.76-1.7-1.92-3.37-2.37-3.37v-0.27c1.38,0,1.99-0.83,1.99-1.8    c0-1.06-0.7-1.52-1.97-1.52c-0.1,0-0.42-0.02-0.61,0.03v5.64c0,0.64,0.39,0.94,0.98,0.94v0.34h-3.31v-0.34    c0.58,0,0.83-0.28,0.83-0.94V216.62z"
   id="path22"
   style="fill:#ffffff;fill-opacity:1" />
	</g>
</g>
</svg>
