<svg width="42" height="41" viewBox="0 0 42 41" fill="none" xmlns="http://www.w3.org/2000/svg">
<path d="M20.809 40.7199C15.4333 40.7199 10.2778 38.5807 6.47668 34.7729C2.67551 30.9651 0.540039 25.8007 0.540039 20.4157C0.540039 15.0307 2.67551 9.86621 6.47668 6.05844C10.2778 2.25066 15.4333 0.111471 20.809 0.111471C24.1626 0.0987393 27.4648 0.936095 30.4084 2.5456C33.3071 4.14157 35.7912 6.39703 37.6607 9.1304C39.7011 12.1875 40.8743 15.7423 41.0551 19.4152C41.236 23.0882 40.4176 26.7413 38.6874 29.9847C36.9573 33.2281 34.3802 35.9398 31.2315 37.8305C28.0828 39.7211 24.4806 40.7196 20.8096 40.7193L20.809 40.7199Z" fill="url(#paint0_linear_497_252)"/>
<path d="M22.0844 29.1075H18.018V16.9638H22.0837V18.6617L22.2466 18.4704C22.9402 17.6373 23.8733 17.0387 24.9188 16.7559C25.1395 16.717 25.3631 16.6975 25.5871 16.6974H25.7652C26.1724 16.6973 26.5785 16.7385 26.9774 16.8204C28.8936 17.3259 30.0414 18.8286 30.2952 21.1656C30.3217 21.4039 30.3369 22.9203 30.3369 25.3263V29.106H26.2705L26.2584 25.4325L26.247 21.7614L26.1554 21.454C26.0919 21.021 25.8745 20.6255 25.5432 20.3402C25.2119 20.0549 24.789 19.899 24.3521 19.9011H24.2566C23.8486 19.9017 23.4494 20.0201 23.1068 20.2422C22.7643 20.4644 22.493 20.7807 22.3254 21.1534C22.0852 21.6414 22.0852 21.6414 22.0852 25.5684V29.103L22.0844 29.1075ZM15.8246 29.1075H11.7552V16.9676H15.8223V29.1113L15.8246 29.1075ZM13.8766 15.3449H13.8153C13.6065 15.3441 13.3984 15.3222 13.194 15.2797C12.7349 15.1819 12.3221 14.9321 12.0222 14.5705C11.7222 14.2089 11.5526 13.7567 11.5407 13.2867C11.5288 12.8167 11.6753 12.3564 11.9566 11.98C12.2378 11.6037 12.6374 11.3332 13.091 11.2123C13.3382 11.1464 13.5928 11.1125 13.8486 11.1113H13.9623C14.2395 11.1114 14.5141 11.1663 14.7701 11.2729C15.0262 11.3795 15.2587 11.5357 15.4544 11.7325C15.6501 11.9293 15.805 12.1628 15.9104 12.4197C16.0158 12.6767 16.0696 12.9519 16.0686 13.2296C16.0747 13.501 16.0264 13.7708 15.9264 14.0231C15.8264 14.2754 15.6769 14.505 15.4867 14.6983C15.0537 15.1143 14.4766 15.346 13.8766 15.3449Z" fill="white"/>
<defs>
<linearGradient id="paint0_linear_497_252" x1="41.0797" y1="37.8588" x2="10.8824" y2="1.041" gradientUnits="userSpaceOnUse">
<stop stop-color="#FF4423"/>
<stop offset="0.492513" stop-color="#BF3BBA"/>
<stop offset="1" stop-color="#5911A0"/>
</linearGradient>
</defs>
</svg>
