<svg width="41" height="41" viewBox="0 0 41 41" fill="none" xmlns="http://www.w3.org/2000/svg">
<path d="M20.269 40.7199C14.8933 40.7199 9.73781 38.5807 5.93664 34.7729C2.13547 30.9651 0 25.8007 0 20.4157C0 15.0307 2.13547 9.86621 5.93664 6.05844C9.73781 2.25066 14.8933 0.111471 20.269 0.111471C23.6225 0.0987393 26.9248 0.936095 29.8684 2.5456C32.7671 4.14157 35.2511 6.39703 37.1207 9.1304C39.161 12.1875 40.3343 15.7423 40.5151 19.4152C40.6959 23.0882 39.8776 26.7413 38.1474 29.9847C36.4172 33.2281 33.8402 35.9398 30.6915 37.8305C27.5428 39.7211 23.9406 40.7196 20.2696 40.7193L20.269 40.7199Z" fill="url(#paint0_linear_497_248)"/>
<path d="M24.939 11.1113C26.28 11.1113 27.57 11.6413 28.519 12.5923C29.469 13.5413 30 14.8213 30 16.1613V24.0613C30 26.8513 27.73 29.1113 24.939 29.1113H15.06C12.269 29.1113 10 26.8513 10 24.0613V16.1613C10 13.3713 12.259 11.1113 15.06 11.1113H24.939ZM26.07 16.3113C25.86 16.3003 25.66 16.3713 25.509 16.5113L21 20.1113C20.42 20.5923 19.589 20.5923 19 20.1113L14.5 16.5113C14.189 16.2813 13.759 16.3113 13.5 16.5813C13.23 16.8513 13.2 17.2813 13.429 17.5813L13.56 17.7113L18.11 21.2613C18.67 21.7013 19.349 21.9413 20.06 21.9413C20.769 21.9413 21.46 21.7013 22.019 21.2613L26.53 17.6513L26.61 17.5713C26.849 17.2813 26.849 16.8613 26.599 16.5713C26.46 16.4223 26.269 16.3313 26.07 16.3113Z" fill="white"/>
<defs>
<linearGradient id="paint0_linear_497_248" x1="40.5397" y1="37.8588" x2="10.3423" y2="1.041" gradientUnits="userSpaceOnUse">
<stop stop-color="#FF4423"/>
<stop offset="0.492513" stop-color="#BF3BBA"/>
<stop offset="1" stop-color="#5911A0"/>
</linearGradient>
</defs>
</svg>
